
<svg width="269" height="60" viewBox="0 0 269 60" fill="none" xmlns="http://www.w3.org/2000/svg">
<path d="M71.2439 19.2485H74.6179C75.1263 19.2485 75.5885 19.5772 75.7271 20.0467L81.643 36.1969L87.559 20.0467C87.7438 19.5772 88.206 19.2485 88.6682 19.2485H91.9035C92.643 19.2485 93.1514 19.9997 92.8741 20.7039L84.185 42.7227C84.0002 43.1922 83.538 43.4739 83.0758 43.4739H80.1178C79.6094 43.4739 79.1935 43.1922 79.0086 42.7227L70.3196 20.7039C69.996 19.9997 70.5044 19.2485 71.2439 19.2485Z" fill="#C63C49"/>
<path d="M93.706 31.3144V31.2675C93.706 24.413 99.0211 18.8262 106.324 18.8262C113.626 18.8262 118.895 24.3661 118.895 31.1736V31.2205C118.895 38.075 113.58 43.6619 106.277 43.6619C98.9287 43.7088 93.706 38.1689 93.706 31.3144ZM113.441 31.3144V31.2675C113.441 27.136 110.483 23.7088 106.277 23.7088C102.072 23.7088 99.1598 27.0891 99.1598 31.2205V31.2675C99.1598 35.3989 102.118 38.8262 106.324 38.8262C110.529 38.8262 113.441 35.4459 113.441 31.3144Z" fill="#C63C49"/>
<path d="M124.118 19.2485H126.937C127.584 19.2485 128.139 19.8119 128.139 20.4692V42.1124C128.139 42.7697 127.584 43.333 126.937 43.333H124.118C123.471 43.333 122.916 42.7697 122.916 42.1124V20.4222C122.916 19.765 123.424 19.2485 124.118 19.2485Z" fill="#C63C49"/>
<path d="M132.113 31.3144V31.2675C132.113 24.413 137.197 18.8262 144.453 18.8262C148.382 18.8262 150.878 19.9999 152.957 21.737C153.42 22.1595 153.512 22.8637 153.096 23.3802L151.201 25.5867C150.831 26.0562 150.138 26.1032 149.676 25.7276C148.104 24.46 146.441 23.7088 144.407 23.7088C140.432 23.7088 137.52 27.0891 137.52 31.2205V31.5961C137.52 35.5398 140.617 38.8731 144.499 38.8262C146.764 38.7792 148.289 37.9811 149.861 36.6665C150.323 36.291 150.97 36.3379 151.34 36.7604L153.142 38.5914C153.604 39.0609 153.558 39.8121 153.096 40.2346C150.877 42.3942 148.289 43.7088 144.222 43.7088C137.289 43.7088 132.113 38.2158 132.113 31.3144Z" fill="#C63C49"/>
<path d="M158.457 19.2485H174.032C174.679 19.2485 175.188 19.765 175.188 20.4222V22.8166C175.188 23.4739 174.679 23.9903 174.032 23.9903H162.478V28.826H172.507C173.154 28.826 173.663 29.3424 173.663 29.9997V32.3941C173.663 33.0514 173.154 33.5678 172.507 33.5678H162.478V38.6382H174.171C174.818 38.6382 175.327 39.1546 175.327 39.8119V42.2063C175.327 42.8636 174.818 43.38 174.171 43.38H158.411C157.764 43.38 157.255 42.8636 157.255 42.2063V20.3753C157.301 19.765 157.81 19.2485 158.457 19.2485Z" fill="#C63C49"/>
<path d="M180.273 19.2485H183.369C183.739 19.2485 184.062 19.4363 184.247 19.718L195.016 34.0842V20.3753C195.016 19.718 195.525 19.2485 196.125 19.2485H198.991C199.638 19.2485 200.1 19.765 200.1 20.3753V42.1124C200.1 42.7697 199.592 43.2391 198.991 43.2391H196.31C195.941 43.2391 195.617 43.0513 195.432 42.7697L184.294 27.934V42.0654C184.294 42.7227 183.785 43.1922 183.184 43.1922H180.319C179.672 43.1922 179.209 42.6758 179.209 42.0654V20.3753C179.117 19.765 179.625 19.2485 180.273 19.2485Z" fill="#C63C49"/>
<path d="M210.499 24.0842H204.26C203.705 24.0842 203.289 23.6147 203.289 23.0983V20.2345C203.289 19.6711 203.752 19.2485 204.26 19.2485H221.915C222.47 19.2485 222.886 19.718 222.886 20.2345V23.0983C222.886 23.6617 222.424 24.0842 221.915 24.0842H215.722V42.2532C215.722 42.8166 215.26 43.2391 214.752 43.2391H211.516C210.962 43.2391 210.546 42.7697 210.546 42.2532V24.0842H210.499Z" fill="#C63C49"/>
<path d="M227.138 19.2485H242.899C243.499 19.2485 243.962 19.718 243.962 20.3283V22.9105C243.962 23.5208 243.499 23.9903 242.899 23.9903H231.252V28.826H241.373C241.974 28.826 242.436 29.2955 242.436 29.9058V32.488C242.436 33.0983 241.974 33.5678 241.373 33.5678H231.252V38.6382H243.037C243.638 38.6382 244.1 39.1077 244.1 39.718V42.3002C244.1 42.9105 243.638 43.38 243.037 43.38H227.138C226.537 43.38 226.075 42.9105 226.075 42.3002V20.2814C226.075 19.718 226.537 19.2485 227.138 19.2485Z" fill="#C63C49"/>
<path d="M247.89 20.2345C247.89 19.6711 248.306 19.2485 248.861 19.2485H258.705C261.709 19.2485 264.067 20.0936 265.592 21.6898C266.932 23.0514 267.625 24.9293 267.625 27.1828V27.2298C267.625 31.1265 265.546 33.5678 262.541 34.6945L267.302 41.7368C267.764 42.3941 267.302 43.2861 266.516 43.2861H262.819C262.495 43.2861 262.172 43.0983 261.987 42.8636L257.18 35.5866H253.067V42.3002C253.067 42.8636 252.651 43.2861 252.096 43.2861H248.815C248.26 43.2861 247.844 42.8636 247.844 42.3002V20.2345H247.89ZM258.382 30.8917C260.924 30.8917 262.356 29.5302 262.356 27.5114V27.4175C262.356 25.164 260.785 23.9903 258.243 23.9903H253.067V30.8917H258.382Z" fill="#C63C49"/>
<path d="M48.0424 40.6575V40.8922C48.0886 41.3617 48.3197 41.7373 48.6895 42.019L50.3533 43.2866C51.0928 43.85 52.1558 43.7091 52.7105 42.958C55.4836 39.1552 56.9625 34.6951 56.9625 30.0472C56.9625 25.3993 55.5298 20.8453 52.7567 17.0894C52.2021 16.3383 51.139 16.1974 50.3996 16.7608L48.7357 18.0284C48.366 18.3101 48.1349 18.6857 48.0886 19.1552V19.3899C48.0886 19.7655 48.2273 20.0941 48.4122 20.4228C50.492 23.2397 51.6012 26.573 51.6012 30.0472C51.6012 33.5214 50.492 36.8547 48.4122 39.6716C48.1811 39.9063 48.0424 40.2819 48.0424 40.6575Z" fill="#C63C49"/>
<path d="M41.1092 35.5401V35.7748C41.1554 36.1973 41.4327 36.6199 41.7562 36.9016L43.0966 37.8875C43.836 38.4509 44.8991 38.31 45.4537 37.5588C48.5965 33.2866 48.5965 26.7138 45.4537 22.4415C44.8991 21.6903 43.836 21.5495 43.0966 22.1128L41.7562 23.0988C41.3865 23.3805 41.1554 23.756 41.1092 24.2255V24.4603C41.1092 24.8358 41.2478 25.2114 41.4327 25.4931C43.3276 28.0283 43.3276 31.972 41.4327 34.5542C41.2478 34.8358 41.1092 35.1645 41.1092 35.5401Z" fill="#C63C49"/>
<path d="M55.8063 47.0892C55.113 46.385 53.9576 46.385 53.2643 47.0892C48.7811 51.6432 42.819 54.1315 36.5333 54.1315C23.4536 54.0845 12.8234 43.2864 12.8234 30C12.8234 16.7136 23.4536 5.91549 36.5333 5.91549C42.819 5.91549 48.7811 8.40376 53.2643 12.9577C53.9576 13.662 55.113 13.662 55.8063 12.9577L57.3777 11.3615C58.071 10.6573 58.071 9.43662 57.3777 8.77934C51.7853 3.09859 44.3904 0 36.5333 0C20.2183 0 6.99986 13.4272 6.99986 30C6.99986 46.5728 20.2645 60 36.5333 60C44.3904 60 51.7853 56.9014 57.3777 51.2676C58.071 50.5634 58.071 49.3427 57.3777 48.6854L55.8063 47.0892Z" fill="#C63C49"/>
<path d="M36.3489 32.8169C37.8804 32.8169 39.122 31.5557 39.122 30C39.122 28.4443 37.8804 27.1831 36.3489 27.1831C34.8174 27.1831 33.5758 28.4443 33.5758 30C33.5758 31.5557 34.8174 32.8169 36.3489 32.8169Z" fill="#C63C49"/>
</svg>
